<?xml version="1.0" encoding="utf-8"?>
<!-- (c) ammap.com | SVG map of Afghanistan - Low -->
<svg xmlns="http://www.w3.org/2000/svg" xmlns:amcharts="http://amcharts.com/ammap" xmlns:xlink="http://www.w3.org/1999/xlink" version="1.1">
	<defs>
		<style type="text/css">
			.land
			{
				fill: #CCCCCC;
				fill-opacity: 1;
				stroke:white;
				stroke-opacity: 1;
				stroke-width:0.5;
			}
		</style>

		<amcharts:ammap projection="mercator" leftLongitude="60.517000" topLatitude="38.490877" rightLongitude="74.889862" bottomLatitude="29.377200"></amcharts:ammap>

		<!-- All areas are listed in the line below. You can use this list in your script. -->		<!--{id:"AF-PIA"},{id:"AF-WAR"},{id:"AF-SAM"},{id:"AF-PAR"},{id:"AF-LOG"},{id:"AF-LAG"},{id:"AF-PAN"},{id:"AF-KAP"},{id:"AF-KAB"},{id:"AF-BGL"},{id:"AF-TAK"},{id:"AF-NAN"},{id:"AF-KDZ"},{id:"AF-KNR"},{id:"AF-NUR"},{id:"AF-BDS"},{id:"AF-PKA"},,{id:"AF-KHO"},{id:"AF-GHA"},{id:"AF-ZAB"},{id:"AF-KAN"},{id:"AF-DAY"},{id:"AF-URU"},{id:"AF-NIM"},{id:"AF-HEL"},{id:"AF-FRA"},{id:"AF-SAR"},{id:"AF-GHO"},{id:"AF-JOW"},{id:"AF-FYB"},{id:"AF-BAL"},{id:"AF-BAM"},{id:"AF-HER"},{id:"AF-BDG"}-->


	</defs>
	<g>
		<path id="H5C21" title="H5C21" class="tomt" d="M921,414l108.5,36.5,26.5,77-62,31s-8.794-12.23-16-18.5c-7.355-6.4-21-13.5-21-13.5Z"/>
    <path id="H5C21_txt" class="tomte_txt" d="M977.184,467.172V477H974.79v-4.046h-3.724V477h-2.394v-9.828h2.394v3.85h3.724v-3.85Zm8.686,1.694H981.5V470.8a2.045,2.045,0,0,1,.784-.5,3.3,3.3,0,0,1,2.828.28,2.784,2.784,0,0,1,1.022,1.232,4.13,4.13,0,0,1,.322,1.638,3.61,3.61,0,0,1-.924,2.6,3.46,3.46,0,0,1-2.6.952,4.64,4.64,0,0,1-1.946-.378,3.027,3.027,0,0,1-1.274-1.078,3.1,3.1,0,0,1-.49-1.582h2.338a1.194,1.194,0,0,0,1.288,1.008,1.157,1.157,0,0,0,.98-.42,1.791,1.791,0,0,0,.322-1.12,1.5,1.5,0,0,0-.336-1.05,1.267,1.267,0,0,0-.98-.364,1.243,1.243,0,0,0-.784.238,1.044,1.044,0,0,0-.406.6h-2.31v-6.09h6.538Zm1.741,3.206a5.242,5.242,0,0,1,.63-2.59,4.462,4.462,0,0,1,1.75-1.778,5.1,5.1,0,0,1,2.562-.644,4.887,4.887,0,0,1,3,.924,4.436,4.436,0,0,1,1.666,2.52h-2.632a2.112,2.112,0,0,0-.84-.938,2.468,2.468,0,0,0-3.01.448,3.43,3.43,0,0,0,0,4.116,2.468,2.468,0,0,0,3.01.448,2.112,2.112,0,0,0,.84-.938h2.632a4.436,4.436,0,0,1-1.666,2.52,4.937,4.937,0,0,1-3,.91,5.185,5.185,0,0,1-2.562-.63,4.579,4.579,0,0,1-1.75-1.778A5.241,5.241,0,0,1,987.611,472.072Zm17.089-.98v1.988h-6.159v-1.988Zm1.78,3.99c.32-.252.46-.369.43-.35q1.38-1.134,2.16-1.862a8.682,8.682,0,0,0,1.34-1.526,2.72,2.72,0,0,0,.55-1.554,1.354,1.354,0,0,0-.27-.9.954.954,0,0,0-.79-.322.984.984,0,0,0-.84.406,1.812,1.812,0,0,0-.3,1.12h-2.31a4,4,0,0,1,.51-1.988,2.989,2.989,0,0,1,1.27-1.176,4.057,4.057,0,0,1,1.76-.378,3.365,3.365,0,0,1,2.51.854,3,3,0,0,1,.85,2.226,4.4,4.4,0,0,1-1.02,2.786,15.3,15.3,0,0,1-2.6,2.492h3.78v1.946h-7.03Zm7.83-6.076V466.78h3.88V477h-2.49v-7.994Zm-41.133,26a1.2,1.2,0,0,0,1.288,1.106,1.073,1.073,0,0,0,1.05-.658,5.431,5.431,0,0,0,.308-2.142,2.024,2.024,0,0,1-.84.672,2.88,2.88,0,0,1-1.19.238,3.4,3.4,0,0,1-1.6-.364,2.739,2.739,0,0,1-1.106-1.106,3.785,3.785,0,0,1-.392-1.792,3.712,3.712,0,0,1,.42-1.806,2.989,2.989,0,0,1,1.218-1.19,3.973,3.973,0,0,1,1.876-.42,3.174,3.174,0,0,1,2.9,1.288,7.094,7.094,0,0,1,.826,3.794,11.3,11.3,0,0,1-.336,3.01,3,3,0,0,1-3.22,2.408,3.693,3.693,0,0,1-1.82-.42,3.039,3.039,0,0,1-1.148-1.106,3.464,3.464,0,0,1-.448-1.512Zm1.162-2.674a1.27,1.27,0,0,0,.938-.35,1.356,1.356,0,0,0,.35-.98,1.4,1.4,0,0,0-.364-1.036,1.325,1.325,0,0,0-.98-.364,1.3,1.3,0,0,0-.98.378,1.362,1.362,0,0,0,1.036,2.352Zm4.875.42a6.77,6.77,0,0,1,.924-3.794,3.372,3.372,0,0,1,3.01-1.386,3.336,3.336,0,0,1,3,1.386,8.2,8.2,0,0,1,0,7.616,3.336,3.336,0,0,1-3,1.386,3.372,3.372,0,0,1-3.01-1.386A6.828,6.828,0,0,1,979.214,492.75Zm5.516,0a5.985,5.985,0,0,0-.308-2.17,1.439,1.439,0,0,0-2.548,0,5.985,5.985,0,0,0-.308,2.17,9.247,9.247,0,0,0,.112,1.582,2.09,2.09,0,0,0,.448,1.008,1.324,1.324,0,0,0,1.022.378,1.279,1.279,0,0,0,1.008-.378,2.022,2.022,0,0,0,.462-1.008A9.241,9.241,0,0,0,984.73,492.75Zm3.617,0a6.771,6.771,0,0,1,.924-3.794,3.371,3.371,0,0,1,3.01-1.386,3.336,3.336,0,0,1,3,1.386,8.2,8.2,0,0,1,0,7.616,3.336,3.336,0,0,1-3,1.386,3.371,3.371,0,0,1-3.01-1.386A6.828,6.828,0,0,1,988.347,492.75Zm5.516,0a5.985,5.985,0,0,0-.308-2.17,1.439,1.439,0,0,0-2.548,0,5.964,5.964,0,0,0-.308,2.17,9.247,9.247,0,0,0,.112,1.582,2.081,2.081,0,0,0,.448,1.008,1.324,1.324,0,0,0,1.022.378,1.279,1.279,0,0,0,1.008-.378,2.022,2.022,0,0,0,.462-1.008A9.342,9.342,0,0,0,993.863,492.75Zm13.827-2.646a3.068,3.068,0,0,1,2.31.882,3.375,3.375,0,0,1,.86,2.45V498h-2.38v-4.242a1.573,1.573,0,0,0-.4-1.162,1.424,1.424,0,0,0-1.09-.42,1.47,1.47,0,0,0-1.11.42,1.612,1.612,0,0,0-.39,1.162V498h-2.38v-4.242a1.577,1.577,0,0,0-.41-1.162,1.409,1.409,0,0,0-1.09-.42,1.47,1.47,0,0,0-1.11.42,1.612,1.612,0,0,0-.39,1.162V498h-2.392v-7.812h2.392v.98a2.49,2.49,0,0,1,.95-.77,2.971,2.971,0,0,1,1.33-.294,3.205,3.205,0,0,1,1.57.378,2.663,2.663,0,0,1,1.09,1.078,3.132,3.132,0,0,1,1.11-1.05A2.984,2.984,0,0,1,1007.69,490.1Zm6.42,1.568h2.43v1.4h-4.32v-1.344l1.7-1.036c.53-.327.79-.663.79-1.008a.362.362,0,0,0-.1-.28.325.325,0,0,0-.25-.112q-.375,0-.42.5h-1.79a1.661,1.661,0,0,1,.67-1.3,2.764,2.764,0,0,1,1.72-.49,2.278,2.278,0,0,1,1.54.462,1.417,1.417,0,0,1,.53,1.092,1.181,1.181,0,0,1-.38.882,4.726,4.726,0,0,1-1.27.812Z"/>
	</g>
</svg>
